<?xml version="1.0" encoding="utf-8"?>
<!-- Generator: Adobe Illustrator 19.2.1, SVG Export Plug-In . SVG Version: 6.00 Build 0)  -->
<svg version="1.1" id="Layer_1" xmlns="http://www.w3.org/2000/svg" xmlns:xlink="http://www.w3.org/1999/xlink" x="0px" y="0px"
	 viewBox="0 0 541.4 482" style="enable-background:new 0 0 541.4 482;" xml:space="preserve">
<style type="text/css">
	.st0{fill:#093266;}
	.st1{fill:#FFFFFF;}
	.st2{fill:none;stroke:#FFFFFF;stroke-width:4.2604;stroke-miterlimit:10;}
	.st3{fill:none;stroke:#FFFFFF;stroke-width:3.821;stroke-miterlimit:10;}
	.st4{fill:#F37021;}
</style>
<path class="st0" d="M112.8,136.2c-3-5.1-4.4-10.5-5-14.9l7.7-2.3l-8.9-8.8l-15.3,15.9l14.9-4.4c0.7,4.4,2.2,9.9,5.2,15.2
	c2.7,4.6,5.9,9.5,9.1,14l1.4-1C118.7,145.6,115.5,140.7,112.8,136.2"/>
<path class="st0" d="M75.9,144.6l-1.5,3.8l5.6-0.8l-2.9-3.6c-0.1-1.1-0.1-3.2,0.9-5l1,1.2l1.4-3.9c1-0.8,2-1.7,3.3-2.6
	c0.1-0.1,0.2-0.2,0.3-0.2l1.4,1.7l1.5-4.2c2.4-2.3,4-4.4,4.1-4.5"/>
<path class="st0" d="M91.1,126.4l-1-0.8c0,0-1.6,2.1-4,4.4l-4.3,0.8l1.4,1.7c-0.1,0.1-0.2,0.1-0.2,0.2c-1.1,0.8-2.1,1.6-3,2.4
	l-4.6,0.8l1.8,2.1c-1.6,2.5-1.4,5.5-1.3,6.5v0.1"/>
<path class="st0" d="M439.6,267c-1.3-1.5-3.8-3.5-3.6-5.8c0.2-2.6,4.5,1.9,6-1c0.9-1.6,0.1-3.9-0.3-5.5c-1.4-4.9-3.8-8.9-7.2-12.7
	c-0.9-1-2.7-2.3-3-3.6c-0.1-0.4-0.2-0.7-0.1-1.1c0-0.1,0-0.1,0.1-0.2c1.7,0.1,3.4,1.1,4.7-0.7c1-1.3,0.5-3.4,0.1-4.7
	c-0.9-2.9-3.4-6.7-5.6-8.6l-2.9-2.4c-2.2-1.9-2-2.8,0.4-1.9c2.4,1,3.8-0.6,3-3.5l-1-3.1c-0.9-2.9-3.3-6.6-5.3-8.4
	c-2-1.8-2.3-2.7-0.6-2.1c1.7,0.6,2.3-1.2,1.5-4l-6.3-20.2c-0.9-2.9-2.3-2.9-3.3,0l-5.5,16.5c0,0-0.1-0.1-0.3-0.3
	c-1.4-2.4-3.2-4.9-4.8-6.4l-1.2-3c-2.7-2.3-4.6-3.4-1.6-2.2c3,1.2,4.6-0.7,3.6-4.2l-1.1-3.8c-1-3.4-3.8-8-6.2-10.2
	c-2.4-2.2-2.8-3.3-0.7-2.6c2,0.7,2.9-1.4,1.9-4.8l-7.1-24.6c-1-3.4-2.8-3.5-4-0.1l-8.4,23.3c-1.2,3.4-0.5,5.6,1.6,5.1
	c2-0.5,1.7,0.5-0.9,2.4c-1.2,0.9-2.4,2.2-3.6,3.8l-0.6-1.3c-1.2-2.3-3.5-5.5-5.3-7.1c-1.8-1.6-2-2.4-0.5-1.8
	c1.5,0.5,2.1-1.1,1.4-3.5l-5.2-18c-0.7-2.6-2-2.6-3-0.1l-6.2,17.1c-0.9,2.4-0.3,4.2,1.2,3.7c1.5-0.4,1.2,0.4-0.6,1.8
	c-1.9,1.4-4.2,4.5-5,7l-0.9,2.4c-0.9,2.4-2.3,6.5-3.3,8.9c0,0-3.6,9.3-1,10.9c2,1.2,6.2-1.1,6.2-1.1c2.2-1.3,2.6-1,0.5,0.7
	c0,0-10.9,9.2-13.6,23.3c-4.9,3.3-9.9,6.6-14,11.3c-5.9,6.7-15.7,17.3-4,22.7c10.8,5,22,8.6,33.3,12.2c0.6,0.2,1.3,0.4,1.9,0.5
	c4.5,5.4,9.1,11.6,14.9,15.2c5,3.1,15.4,6.2,21.3,4c0.6-0.2,1.3-0.5,1.8-1c9.4,5.2,19.7,9.8,27.5,10.1c4,1.6,8.1,2.9,12.1,4.3
	c3.7,1.4,13.7,17.6,14.6,10.9C452.2,293.7,448.7,276.9,439.6,267"/>
<path class="st1" d="M452.9,304.8c-6.5-9.2-19.5-23.1-31.4-36c0.7,3.1,0.9,3.5,0.9,7.9v20.8c13.8,9.7,28.2,28.9,34.3,43.6l-0.2-3.8
	v-21.4C456.4,315.7,456.6,309.6,452.9,304.8"/>
<path class="st2" d="M452.9,304.8c-6.5-9.2-19.5-23.1-31.4-36c0.7,3.1,0.9,3.5,0.9,7.9v20.8c13.8,9.7,28.2,28.9,34.3,43.6l-0.2-3.8
	v-21.4C456.4,315.7,456.6,309.6,452.9,304.8z"/>
<path class="st0" d="M449.6,299.9c-7.1-8.8-17.8-20.2-27.7-31c0.4,2.8,0.4,2.8,0.4,7.8v20.8c21.8,18.2,26.4,25.8,30.9,43.8v-31.2
	C453.2,304.7,451.4,302.2,449.6,299.9"/>
<path class="st0" d="M207.4,336.3c-1.4-17.3-0.9-34.4-1.4-51.7c-0.2-8-0.1-17-2.3-24.9c5.2-11.2,3.3-25.7-9.4-32.7
	c-2.4-1.3-4.9-2-7.6-2c-1,0-2,0.1-3.1,0.2c-2.3,0.3-4.6,1-7,1.7c-0.8,0.2-1.6,0.5-2.5,0.7c-6.1,1.7-13.3,2.9-22.4,3.9
	c-1.2,0.1-2.4,0.2-3.7,0.2c-2.7,0-5.5-0.3-8.2-0.5c-2.2-0.2-4.4-0.4-6.6-0.5c-4.3-0.1-6.3-0.8-10.5-0.5c-2.3,0.2-7.3,0.6-9.7,0.8
	c-5.8,0.5-12.1-0.3-17.7,1.8c-2.4,0.9-4.6,2.3-5.1,4.9c-1.5,7.4,8.6,15.3,14.2,18.3c-9.8-5.2-11.9-1.6-17.1-4.1
	c3.4,4.3,9.9,11.5,25.3,18c-3.1,0.2-6.3,0.4-9.3-0.4c-3.1-0.8-5.8-3.1-8.8-3.7c1.9,3,4.1,5.9,7,8.3s6.8,3.2,9.5,5.3
	c-3.1,1.6-10.9-0.4-13.6-2.8c1.9,6.9,14.8,8.8,20.4,10.4c-3.2,1.2-7.3-0.5-10.7-0.1c-1.9,0.2-3.9,0.9-5.8,1.2
	c-1.2,0.2-6.2,2.6-7,2.2c4.2,1.7,17.4,3.6,22.4,11.4c0,0-4.7-5.4-15.1-4.8c3.9-0.2,7.9,4.4,10.4,6.7c2.3,2.1,4.3,3.5,7.1,4.2
	c3.8,1.3,7.9,1.7,11.1,4.6c-3.8-1.6-8.5-1.7-12.4-1c4.1,0.8,13.1,3.8,14.5,7.9c-1.8,0.4-3.8,0.3-5.6,0.8c-2,0.6-3,2.3-5.4,2.1
	c0.5,11.4,19.3,17.7,25.3,25.5c2.2,2.8,3.8,6.1,4.8,9.5c0.5,1.5,0.2,2.8,0.4,4.4c0.2,2,0.7,4,1,6c0.5,3,1.2,6.4,2.6,9
	c0.9,1.7,2.1,3.3,3,5c0.4,0.8,0.9,1.7,1.1,2.5c0.1,0.4,0.2,2.4,0.4,2.6c-0.8-0.7-1.9-1.4-2.8-2c-1.1-0.7-3.3-0.8-4.1-1.5
	c2.5,2.1,4.3,4.6,6.4,7.1c0.8,0.9,3,5.7,3.8,5.9c-3-0.6-5.7-1.1-7.7-1.1c2.9,2.1,8.6,3,14.5,12.4c0,0-3.2-4.4-15.6-3.8
	c5.8,1.9,6.6,2.5,14.9,10c-2.7-0.4-5.8,3-12.4,3.7c3.3,0.5,7.3,2.3,11.9,4.5c-3.6,0.1-5.1,0.1-8.9,2.5c5.1-1.3,12.2,3.8,12.2,3.8
	s-4.5,0.9-5.4,1.7c6.1,1,10.6,10.9,11.8,12.4c3.9,4.8,8.8,9.3,15.4,9.4c0.3-1.3-0.1-2.5-0.5-3.9c-3.2-11.5,0.1-20.1,3.8-30.7
	c3.6-10.4,7.8-19.3,9.4-30.5C208.8,370.1,208.7,353.2,207.4,336.3"/>
<path class="st1" d="M165.6,217c-0.1,0-0.2,0-0.4,0.1c-10.3,2.1-20.7,3.8-31.2,4.9c-6.4,0.6-12.8,1-19.2,1.4c-4,0.2-8.1,0.1-12,0.6
	c-3.3,0.4-4,2.9-0.6,4.4c3.2,1.4,6.9,2.1,10.3,2.1c-2.1,8.4,8.6,11.5,20.2,5.8c-1.6,4.7,8.1,4.6,16.2-1.5c0.6,9,11.6,4,18.9-1.5
	c2.4,5.7,12.3-1.3,14.7-4.8c13.8-6.6,17.2-11.2,17.4-14.8"/>
<path class="st0" d="M202.4,191.2c-26,4.6-99.1,18.1-107.8,19.8c-2,0.2-12.4,2.2-14.3,3.2c-6,3.4-4.1,9.7,4.4,8.9
	c-1,7.1,8.3,7,13.8,5.3c0,4.7,8.3,2.5,10.8,0c0.2,4.9,8.9,5.1,12.4-0.1c0.8,8,13.1-2.9,16.6-4c8.8-2.9,19.3,0.4,28.2,1.3
	c11.1,1.2,22.2,0.6,33.3,2c0.9,0.1,1.7,0.2,2.7,0.3v-36.7H202.4z"/>
<path class="st1" d="M127.6,212.4c-8.3-0.5-16.6,0.2-24.8,1.4c-5.4,0.8-10.9,0.8-16.2,1.8c-1.6,0.3-5.9,0.7-6.8,2.4
	c-1.5,2.9,7.7,1.9,7.7,2.1c-1.7,5.7,4.1,7.4,12.2,3.8c-1.3,3.2,4.5,3.5,10.3-0.4c0.1,7.4,8.5,2.8,11.9,1.1c2.2,4.9,7.4,0.5,10.8-1.1
	c2.7-1.3,5.9-2.6,8.7-3.4c2.2-0.6,14.6,0.7,14.1-2.4c-0.2-1.8,0-7.8-1.6-8.2C148.5,208,133.2,212.8,127.6,212.4"/>
<path class="st1" d="M419.1,270.8c0-2.3-0.5-4-1.4-5.2c-1-1.8-9.2-8.1-17.7-24.7c-1.6-3.2-3.5-8.4-6.5-11.7
	c-1.2-1.9-3.3-3.2-5.8-3.2h-26.5H357l-4.7-0.1c-3.7,0-3.5,3-3.5,6.7v28.8v3.4v0.9c0,3.6,2.9,4,7,5c37,7,47.3,15.6,63.3,24.9
	L419.1,270.8L419.1,270.8z"/>
<path class="st2" d="M419.1,270.8c0-2.3-0.5-4-1.4-5.2c-1-1.8-9.2-8.1-17.7-24.7c-1.6-3.2-3.5-8.4-6.5-11.7
	c-1.2-1.9-3.3-3.2-5.8-3.2h-26.5H357l-4.7-0.1c-3.7,0-3.5,3-3.5,6.7v28.8v3.4v0.9c0,3.6,2.9,4,7,5c37,7,47.3,15.6,63.3,24.9
	L419.1,270.8L419.1,270.8z"/>
<path class="st0" d="M361.7,199.7c-0.4-3.3-1.3-6.4-2.5-8.3c-2.8-4.7-3.2-7.4-3.2-7.4c-0.3-2.2-1.2-5.7-1.8-7.9l-1.1-3.5
	c-0.7-2.1-1.7-5.6-2.4-7.7l-0.1-0.2c-0.7-2.1-1.7-5.6-2.4-7.7l-0.8-2.5c-0.7-2.1-2.5-5.1-4.1-6.7l-5.1-4.8c-1.6-1.5-1.2-2.2,0.9-1.5
	l1,0.3c2.1,0.7,3.8-0.4,3.7-2.5c-0.1-2.1-0.3-4.7-0.6-5.8c-0.2-1.1-1.3-3.7-2.3-5.6l-2.4-4.8c-1-2-3.1-4.7-4.7-6
	c-1.5-1.3-1.8-2-0.5-1.6c1.3,0.5,1.8-0.9,1.1-3l-4.7-15.2c-0.7-2.1-1.8-2.1-2.5,0l-4.9,14.6c-0.7,2.1-0.2,3.5,1,3.2
	c1.3-0.4,1,0.3-0.5,1.5c-1.6,1.2-3.4,3.9-4.1,6l-0.7,2.1c-0.7,2.1-1.9,5.6-2.7,7.6c0,0-2.9,7.9-0.6,9.3c1.7,1,5.3-1.1,5.3-1.1
	c1.9-1.1,2.1-0.8,0.5,0.6c0,0-10,8.7-11.5,21.8c-1.9,15.8,3.6,24.2,13.7,35.5c4.5,5,9.1,11.6,14.9,15c4.3,2.5,13.2,5,18.2,3.1
	C361.3,214.4,362.6,206.5,361.7,199.7"/>
<path class="st0" d="M338,174.6c-0.4-3.3-1.3-6.4-2.5-8.3c-2.8-4.7-3.2-7.4-3.2-7.4c-0.3-2.2-1.2-5.7-1.8-7.9l-1.1-3.5
	c-0.7-2.1-1.7-5.6-2.4-7.7l-0.1-0.2c-0.7-2.1-1.7-5.6-2.4-7.7l-0.8-2.5c-0.7-2.1-2.5-5.1-4.1-6.7l-5.1-4.8c-1.6-1.5-1.2-2.2,0.9-1.5
	l1,0.3c2.1,0.7,3.3-0.5,2.7-2.6l-0.3-1.1c-0.7-2.1-2.6-5.1-4.3-6.5l-2.1-1.8c-1.7-1.5-1.5-2.1,0.3-1.4c1.9,0.7,2.9-0.5,2.2-2.6
	l-0.7-2.3c-0.7-2.1-2.5-5-4-6.3s-1.8-2-0.5-1.6c1.3,0.5,1.8-0.9,1.1-3l-4.7-15.2c-0.7-2.1-1.8-2.1-2.5,0L298.7,87
	c-0.7,2.1-0.2,3.5,1,3.2c1.3-0.4,1,0.3-0.5,1.5c-1.6,1.2-3.4,3.9-4.1,6l-0.7,2.1c-0.7,2.1,0.3,3.4,2.1,2.9c1.9-0.5,1.9,0,0,1.2
	c0,0-2.1,1.3-3.6,3.4c-1.2,1.7-4.1,8-1.8,9.4c1.7,1-4.2,8.3-5.8,21.3c-1.9,15.8,3.6,24.2,13.7,35.5c4.5,5,9.1,11.6,14.9,15
	c4.3,2.5,13.2,5,18.2,3.1C337.6,189.3,338.8,181.4,338,174.6"/>
<path class="st0" d="M351.6,54.3L351.6,54.3C351.5,54.3,351.5,54.3,351.6,54.3C351.5,54.3,351.6,54.3,351.6,54.3
	c-0.2,0.7-0.8,5.1,15.9,19.3c0.4,0.3,0.7,0.6,1.1,0.9v13.8l-0.6-0.5c0.1-0.4,0-0.9-0.4-1.2l-1.5-1.3c-0.5-0.4-1.2-0.3-1.6,0.1
	l-0.7,0.9c-0.4,0.5-0.4,1.2,0.1,1.6l1.5,1.3c0.3,0.3,0.8,0.3,1.2,0.1l1.9,1.6h0.1v14.2l-0.3-0.2c0.1-0.4,0-0.9-0.3-1.2l-1.5-1.3
	c-0.5-0.4-1.2-0.3-1.6,0.1l-0.7,0.9c-0.4,0.5-0.4,1.2,0.1,1.6l1.5,1.3c0.3,0.3,0.8,0.3,1.2,0.1l1.7,1.4v13.9l4.3,3.7l5.2-25.6
	l5.7-12.3c8.5,7.3,13.6,11.6,13.6,11.6s4.4,3.1,11.2,7.2l0.1,15.9l2.6,2.2L418,112h-0.1c0.4,0.2,0.8,0.5,1.2,0.7
	c0,0,0.2,0.3,0.7-0.1l0,0l0,0l0,0l0,0c0.3-0.6,0-0.7,0-0.7c-0.3-0.4-0.6-0.8-1-1.2l0.1,0.1l11.4-8.4l-2.6-2.2l-15.7,2.4
	c-5.2-6-8.9-9.9-8.9-9.9s-5.1-4.4-13.6-11.6l11.2-7.6l24.4-9.3l-4.3-3.7l-13.7,2.2l-1.6-1.4c0.1-0.4,0-0.9-0.3-1.2l-1.5-1.3
	c-0.5-0.4-1.2-0.4-1.6,0.1l-0.8,0.9c-0.4,0.5-0.3,1.2,0.1,1.6l1.5,1.3c0.4,0.3,0.8,0.3,1.2,0.1l0.3,0.2l-14,2.2c0,0,0,0-0.1-0.1
	l-1.9-1.6c0.1-0.4,0-0.9-0.3-1.2l-1.5-1.3c-0.5-0.4-1.2-0.3-1.6,0.1l-0.7,0.9c-0.4,0.5-0.4,1.2,0.1,1.6L386,65
	c0.3,0.3,0.8,0.3,1.2,0.2l0.6,0.5l-13.6,2.1c-0.4-0.3-0.7-0.6-1.1-0.9C356.5,52.7,352.2,54,351.6,54.3L351.6,54.3"/>
<path class="st1" d="M180.3,190.1l82.5-135.9c1.4-2.3,3.6-2.3,4.8,0.2L326.1,168c1.2,2.4,1.5,4.9,0.5,5.6c-1,0.7-1.7,1.2-1.7,1.2"/>
<path class="st0" d="M174.4,173.7c0,2.3,2,4,4.2,3.9l92.6-4.3c2.3-0.1,3.3-1.8,2.2-3.8L226.1,81c-1.1-2-3-2.1-4.2-0.2l-45.1,66.4
	c-1.3,1.9-2.4,5.2-2.4,7.5V173.7z"/>
<path class="st0" d="M159.7,222.9c-2.7,0-3.8-1.9-2.4-4.2L259.5,51.9c1.4-2.3,3.6-2.2,4.8,0.2L349,217.9c1.2,2.4,0,4.4-2.7,4.4
	L159.7,222.9z"/>
<polyline class="st1" points="281.7,94.7 261.7,55.1 244.4,83.1 250.6,84.5 257.1,74.9 257.7,89.1 265.3,93 269.2,86.1 265.8,77 
	269.2,77 273.2,86.9 277.9,90 "/>
<polyline class="st1" points="223.5,117.9 222.4,113 222.4,102 218,113.9 212,122.1 209.4,119.7 209.1,114.2 197.5,123.3 
	223.7,82.9 249.7,131.2 235.4,116.8 228.2,104.9 225.7,113 "/>
<path class="st1" d="M383.1,214.5h-29.2c-0.5,0-1,0.4-1,1c0,0.5,0.4,1,1,1h4.5c1.1,0.2,9.3,2.4,8,10.5c-0.1,0.5,0.2,1,0.7,1.1h0.1
	c0.4,0,0.9-0.3,1-0.7c0-0.1,0-0.2,0-0.3c0.1,0.3,0.4,0.6,0.9,0.6h0.1c0.5-0.1,0.9-0.5,0.9-1.1c-0.9-7.9,7-9.8,8.4-10.1h4.6l0,0
	c0.5,0,1-0.4,1-1C384,215,383.5,214.5,383.1,214.5 M368.2,223.7c-0.5-3.6-3-5.9-5.2-7.2h10.5C371.2,217.7,368.8,220,368.2,223.7"/>
<path class="st0" d="M419.1,270.8c0-2.3-0.5-4-1.4-5.2c-1-1.8-9.2-8.1-17.7-24.7c-1.6-3.2-3.5-8.4-6.5-11.8
	c-1.2-1.9-3.3-3.3-5.8-3.3h-40.6c0,0,1.1,58,1.4,58.4c22.8-0.9,54.4,3,70.4,12.5v-25.8H419.1z"/>
<path class="st1" d="M385,231.1h-4.6h-24.3h-5.5c-1.5,0-2.9,1-2.9,2.4v0.4v10.4v5.2c0,1.5,1.4,2.9,2.9,2.9h5.5h24.3h5.5
	c1.5,0,2.3-1.4,2.3-2.9v-5.2V234v-0.4c0-1.5-1.2-2.6-2.8-2.6"/>
<path class="st1" d="M381.5,260.1c0,1.5-1.3,2.7-2.8,2.7c-1.5,0-2.7-1.3-2.7-2.8c0-1.5,1.3-2.7,2.8-2.7S381.6,258.6,381.5,260.1"/>
<path class="st1" d="M359.1,258.8c0,1.5-1.3,2.6-2.7,2.6c-1.5,0-2.6-1.3-2.6-2.7c0-1.5,1.3-2.6,2.7-2.6
	C358.1,256.1,359.2,257.3,359.1,258.8"/>
<rect x="375.4" y="300.4" class="st0" width="5.3" height="109.7"/>
<rect x="406.3" y="314.2" class="st0" width="5.3" height="80.9"/>
<polygon class="st0" points="377.5,334.5 375.5,332.6 362.6,345.7 349.5,332.6 347.5,334.5 360.6,347.6 347.5,360.7 349.5,362.5 
	362.6,349.5 375.5,362.5 377.5,360.7 364.4,347.6 "/>
<polygon class="st0" points="377.5,369.4 375.5,367.5 362.6,380.6 349.5,367.5 347.5,369.4 360.6,382.5 347.5,395.5 349.5,397.4 
	362.6,384.3 375.5,397.4 377.5,395.5 364.4,382.5 "/>
<polygon class="st0" points="407.9,334.5 406,332.6 393,345.7 379.9,332.6 378.1,334.5 391.1,347.6 378.1,360.7 379.9,362.5 
	393,349.5 406,362.5 407.9,360.7 394.8,347.6 "/>
<polygon class="st0" points="407.9,369.4 406,367.5 393,380.6 379.9,367.5 378.1,369.4 391.1,382.5 378.1,395.5 379.9,397.4 
	393,384.3 406,397.4 407.9,395.5 394.8,382.5 "/>
<path class="st1" d="M433,286.4c-2.1-2.4-4.3-5-7.5-7.5v11.6c3.2,1.9,5.3,3.8,7.5,5.9V286.4z"/>
<path class="st1" d="M440.4,294.7c-2.1-1.7-3.2-3.5-5.3-5.3v9.6c2.1,1.6,3.2,3.2,5.3,4.8V294.7z"/>
<path class="st1" d="M446.2,301.3c-1.1-1.3-2.6-2.6-3.6-3.8v9.1c2.1,1.8,3.4,3.6,4.9,5.5c0,0,0-5.3,0-6.7
	C447.4,304,447.2,302.5,446.2,301.3"/>
<path class="st1" d="M404.2,253.7c-2.1-2.2-2.9-4.8-4.5-7.7c-1.2-2.1-3-5.2-4-8.1v29c0,0,3.2,3.9,8.5,8.3V253.7z"/>
<path class="st1" d="M406.3,258.8v19.1c3.2,2,5.3,4,8.5,5.5v-13.1c0,0-0.1-2.6-1.8-4.4c-1.8-1.9-3.5-4.4-6.8-7.7"/>
<polygon class="st0" points="111.9,103 98.6,100.5 106.6,108.5 "/>
<polygon class="st0" points="97.3,101.1 90.5,125.2 105.7,109.4 "/>
<polygon class="st0" points="95.6,118.2 95.9,118.1 95.7,117.9 "/>
<path class="st1" d="M209.6,179.2c-0.4-0.6-1-1.1-1.7-1.3c-5.6-1.8-18.9-29.1-26-43.8c-2.9-5.9-5.3-11-7.3-14.7
	c-0.2-0.4-0.5-0.8-0.9-1l-35.1-24c-0.9-0.6-2.2-0.7-3.2-0.1s-1.5,1.7-1.4,2.9l5.6,47.2c-2.7-2.8-17.7-17.1-21.2-21l-9,18l2.9,77
	l1-0.1c2.1,0,3.9-0.1,5.7-0.1l0,0l1,0.2c10-0.2,17.2-0.3,25.6-1.6c2.2-0.2,4.6-0.3,7.3-0.3c3.6,0,2.1-2.7,4.9-2.6
	c2.8,0.2,0.7,0.2,1.9,0c0.6-0.1,3.3-0.4,3.8-0.4c1.2,0,4.1-0.7,5-0.6c0.8,0.1,5.8,0,6.6,0c3,0,7.6,0.6,9.5-0.5
	c1.4-0.8,2.6-2.1,4.2-4.4c4.9-7.4,12-19.5,12.2-21.3c0-0.3,0.5-1.3,0.5-1.3c4-0.9,4.8-1.4,5.5-1.6c1,0,2-0.7,2.5-1.6
	C210.2,181.2,210.1,180.1,209.6,179.2"/>
<path class="st0" d="M196.8,183.3c0,0,11.3-2.3,11.2-2.1c-7.5-2.3-24.2-37.7-31.2-50.7l-28.6-20.3l5.6,47.2
	c-4.8-5-31.5-34-34.2-37.5l-0.3-2.4l-1.5,0.2l0.6,5.5c-4.7,8.8-37.2,76.4-37.2,76.4l-5.2,1c0,0,12.9,1.2,15.5,1.5
	c3.1,3,8,10.7,18.4,12.7c16.2,2,33.7-0.5,38.8-0.5c7.6-0.2,7.9,1.2,15.3,0.1c8.6-1,7.7-1.3,10.6-1.7c6.3-0.6,8.1-1.1,12.7-6.7
	c1.7-3,11-18.4,11.5-20.5C198.9,184.5,197.6,183.4,196.8,183.3 M183,187.4c0.6,0.5,1.2,1,1.8,1.4c-5.2,1.3-12.7,2.8-23.9,4.6
	l-0.2-1.7C168.5,190.2,176.7,188.6,183,187.4 M154.2,159.9l3.4,30.2c-0.1,0-0.1,0-0.2,0c-5.4,0.9-10.8,2-16.2,2.8
	c-3.9,0.6-7.8,1.2-11.7,1.8l-0.1-0.5l25.7-5l-0.3-1.5l-3.9,0.8c-1.2-5-6.8-27.6-10.8-43.4C144.6,150,149.4,155,154.2,159.9
	 M126.6,195.3c-0.3,0.1-0.6,0.1-1,0.2v-0.3c-0.1-0.5-4.3-27.9-5.7-37.1c0.8-2,1.4-3.8,1.9-5.2L126.6,195.3z M121.4,149.5
	c-0.8,2.4-4.8,13.1-9,24c1.2-9,2.7-18,3.5-22.4c2-3.2,3.6-5.9,4.7-7.6L121.4,149.5z M111.5,140.6c3.1-6.3,5.7-11.6,7.3-14.7
	l1.7,15.3c-1.8,2.6-6.8,10.8-12.5,20.3C108.3,157.1,109.5,149.6,111.5,140.6 M100.4,200.5c1.2-0.2,2.7-0.4,4.4-0.7
	c1.9-0.1,4.9-0.6,8-1.2c4.5-0.6,9.4-1.3,14-1.9l0.2,2.2C113,200.1,100.9,200.5,100.4,200.5 M146.3,196.7c-5.3,0.8-11,1.4-16.5,1.9
	c0-0.1,0.1-0.2,0.1-0.3v-0.1l-0.3-1.9c7.4-1,13.5-1.8,14.4-1.9c3.6-0.5,8.4-1.3,13.7-2.2l0.2,1.7c-3.4,0.5-7.1,1-11.1,1.6
	C145.5,195.7,146.3,196.7,146.3,196.7 M186.8,188.3c-0.5-0.4-1.1-0.8-1.8-1.3c5.1-1,8.6-1.7,8.6-1.7l1.8,0.6
	C193.5,186.4,191,187.2,186.8,188.3"/>
<path class="st1" d="M315.9,213.6c-2.2-2.2-3.5-5.1-3.6-8.2l-57.7-0.1c-0.3,6.6-5.8,11.9-12.5,11.9s-12.1-5.3-12.4-11.9l-10.3,0.2
	v-6.4c-0.4,0.1-0.8,0.2-1.2,0.3l-1.7,0.2l-1.7-13.1l1.7-0.2c1-0.1,2,0,3,0.3V169h1.4l0.8-20.3c0-4,1.6-7.7,4.4-10.5
	c2.8-2.8,6.6-4.4,10.5-4.4h0.8c0.6-0.6,1.5-0.9,2.4-0.9c1,0,1.9,0.3,2.5,0.9h16.3c0.6-0.6,1.5-0.9,2.4-0.9c1,0,1.8,0.3,2.4,0.9h16.3
	c0.6-0.6,1.5-0.9,2.4-0.9c1,0,1.9,0.3,2.4,0.9h16.3c0.6-0.6,1.5-0.9,2.5-0.9s1.8,0.3,2.4,0.9H322c0.6-0.6,1.5-0.9,2.4-0.9
	c1,0,1.8,0.3,2.4,0.9h16.3c0.6-0.6,1.5-0.9,2.4-0.9c1,0,1.8-0.1,2.4,0.9h0.8c8.2,0,14.5,6.7,14.5,14.8l0,0l0.9,20.3h1.5v29.2h3v7.3
	l-31.7-0.2c-0.1,3.1-1.4,6-3.6,8.2C328.7,218.5,320.8,218.5,315.9,213.6"/>
<polygon class="st0" points="223.1,156.7 222.6,168 222.6,169.3 362.8,169.5 362.8,168.3 362.3,156.9 "/>
<path class="st0" d="M364.1,200.1v-9.6v-19.6l-143-0.2v19.2c-1-1.3-2.7-2.1-4.5-1.8l1.3,9.6c1.3-0.2,2.4-0.9,3.2-1.8v7.9h9.3
	c0-6.5,5.3-11.7,11.7-11.7c6.5,0,11.7,5.3,11.7,11.7l59.2,0.1c0-6.5,5.3-11.7,11.7-11.7c6.5,0,11.7,5.3,11.7,11.7h14.1h10.9h2.7h3
	v-3.8L364.1,200.1z M250.6,186.2c0,0.6-0.5,1.2-1.1,1.3l-24.4,4.4c-0.5,0.3-0.9,0.1-0.9-0.5v-16c0-0.6,0.5-1.1,1.1-1.1h24.2
	c0.6,0,1.1,0.5,1.1,1.1L250.6,186.2z M277,186.2c0,0.6-0.5,1.1-1.1,1.1h-19.5c-0.6,0-1.1-0.5-1.1-1.1v-10.7c0-0.6,0.5-1.1,1.1-1.1
	h19.5c0.6,0,1.1,0.5,1.1,1.1V186.2z M303.5,186.2c0,0.6-0.5,1.1-1.1,1.1h-19.5c-0.6,0-1.1-0.5-1.1-1.1v-10.7c0-0.6,0.5-1.1,1.1-1.1
	h19.5c0.6,0,1.1,0.5,1.1,1.1V186.2z M329.9,186.3c0,0.6-0.5,1.1-1.1,1.1h-19.5c-0.6,0-1.1-0.5-1.1-1.1v-10.7c0-0.6,0.5-1.1,1.1-1.1
	h19.5c0.6,0,1.1,0.5,1.1,1.1V186.3z M356.4,200.9c0,0.6-0.5,1.1-1.1,1.1h-12.7c-0.6,0-1.1-0.5-1.1-1.1v-25.3c0-0.6,0.5-1.1,1.1-1.1
	h12.7c0.6,0,1.1,0.5,1.1,1.1V200.9z"/>
<path class="st0" d="M362.1,149c0-7.2-5.9-13-13.1-13h-1.7c-0.1-1-0.7-1-1.5-1s-1.5,0.3-1.5,0.8l-18.1-0.1c-0.1-0.5-0.7-0.9-1.5-0.9
	s-1.4,0.4-1.5,0.9h-18.1c-0.1-0.5-0.7-0.9-1.5-0.9s-1.4,0.4-1.5,0.9H284c-0.1-0.5-0.7-0.9-1.5-0.9s-1.4,0.4-1.5,0.9h-18.1
	c-0.1-0.5-0.7-0.9-1.5-0.9s-1.4,0.4-1.5,0.9h-18.1c-0.1-0.5-0.7-0.9-1.5-0.9s-1.4,0.4-1.5,0.9h-1.7c-7.2,0-13.2,5.9-13.2,13.1
	l-0.3,6.7l139.2,0.3L362.1,149z M251.5,152.8c0,0.6-0.5,1.1-1.1,1.1h-19.1c-0.6,0-1.1-0.5-1.1-1.1v-10.5c0-0.6,0.5-1.1,1.1-1.1h19.1
	c0.6,0,1.1,0.5,1.1,1.1V152.8z M277.4,152.8c0,0.6-0.5,1.1-1.1,1.1h-19.1c-0.6,0-1.1-0.5-1.1-1.1v-10.5c0-0.6,0.5-1.1,1.1-1.1h19.1
	c0.6,0,1.1,0.5,1.1,1.1V152.8z M303.3,152.9c0,0.6-0.5,1.1-1.1,1.1h-19c-0.6,0-1.1-0.5-1.1-1.1v-10.5c0-0.6,0.5-1.1,1.1-1.1h19
	c0.6,0,1.1,0.5,1.1,1.1V152.9z M329.2,152.9c0,0.6-0.5,1.1-1.1,1.1h-19c-0.6,0-1.1-0.5-1.1-1.1v-10.5c0-0.6,0.5-1.1,1.1-1.1h19
	c0.6,0,1.1,0.5,1.1,1.1V152.9z M358.6,152.9c-0.1,0.6-0.6,1.1-1.2,1.1H335c-0.6,0-1.1-0.5-1.1-1.1v-10.5c0-0.6,0.5-1.1,1.1-1.1
	c0,0,13.3,0,17.7,0C359.8,141.4,358.6,152.9,358.6,152.9"/>
<path class="st1" d="M324.7,217.4c7.1,0,12.8-5.7,12.8-12.8c0-7-5.7-12.8-12.8-12.8c-7,0-12.8,5.7-12.8,12.8
	C312,211.7,317.7,217.4,324.7,217.4"/>
<path class="st0" d="M325.6,205.4c-0.5,0.5-1.2,0.5-1.7,0s-0.5-1.2,0-1.7s1.2-0.5,1.7,0C326,204.2,326,205,325.6,205.4"/>
<path class="st0" d="M323.2,205.5c-0.1-0.2-0.1-0.3-0.2-0.5c-0.1-0.4-0.5-0.7-0.9-0.6c-0.8,0.1-1.6,0.2-2.4,0.4
	c-0.4,0.1-0.7,0.7-0.4,1.5c0.1,0.3,0.2,0.6,0.3,0.9c0.3,0.7,0.9,1.1,1.3,0.8c0.7-0.4,1.4-0.9,2.1-1.3
	C323.3,206.3,323.4,205.9,323.2,205.5"/>
<path class="st0" d="M323.9,203.1c0.2-0.1,0.3-0.1,0.5-0.2c0.4-0.1,0.7-0.5,0.6-0.9c-0.1-0.8-0.2-1.6-0.4-2.4
	c-0.1-0.4-0.7-0.7-1.5-0.4c-0.3,0.1-0.6,0.2-0.9,0.3c-0.7,0.3-1.1,0.9-0.8,1.3c0.4,0.7,0.9,1.4,1.3,2.1
	C323,203.1,323.5,203.3,323.9,203.1"/>
<path class="st0" d="M329.8,204.5c0.4-0.1,0.7-0.7,0.4-1.5c-0.1-0.3-0.2-0.6-0.3-0.9c-0.3-0.7-0.9-1.1-1.3-0.8
	c-0.7,0.4-1.4,0.9-2.1,1.3c-0.4,0.2-0.5,0.7-0.3,1.1c0.1,0.2,0.1,0.3,0.2,0.5c0.1,0.4,0.5,0.7,0.9,0.6
	C328.2,204.8,329,204.6,329.8,204.5"/>
<path class="st0" d="M325.6,206.1c-0.2,0.1-0.3,0.1-0.5,0.2c-0.4,0.1-0.7,0.5-0.6,0.9c0.1,0.8,0.2,1.6,0.4,2.4
	c0.1,0.4,0.7,0.7,1.5,0.5c0.3-0.1,0.6-0.2,0.9-0.3c0.7-0.3,1.1-0.9,0.8-1.3c-0.4-0.7-0.9-1.4-1.3-2.1
	C326.5,206.1,326,206,325.6,206.1"/>
<path class="st0" d="M332.3,197c-4.2-4.2-11-4.2-15.2,0s-4.2,11,0,15.2s11,4.2,15.2,0S336.5,201.2,332.3,197 M319.8,209.6
	c-2.7-2.7-2.7-7.2,0-9.9s7.2-2.7,9.9,0c2.7,2.7,2.7,7.2,0,9.9C326.9,212.3,322.5,212.3,319.8,209.6"/>
<path class="st1" d="M241.9,217.4c7,0,12.8-5.7,12.8-12.8c0-7-5.7-12.8-12.8-12.8c-7,0-12.8,5.7-12.8,12.8
	C229.2,211.7,234.9,217.4,241.9,217.4"/>
<path class="st0" d="M242.8,205.4c-0.5,0.5-1.2,0.5-1.7,0s-0.5-1.2,0-1.7s1.2-0.5,1.7,0C243.2,204.2,243.2,205,242.8,205.4"/>
<path class="st0" d="M240.4,205.5c-0.1-0.2-0.1-0.3-0.2-0.5c-0.1-0.4-0.5-0.7-0.9-0.6c-0.8,0.1-1.6,0.2-2.4,0.4
	c-0.4,0.1-0.7,0.7-0.4,1.5c0.1,0.3,0.2,0.6,0.3,0.9c0.3,0.7,0.9,1.1,1.3,0.8c0.7-0.4,1.4-0.9,2.1-1.3
	C240.5,206.3,240.6,205.9,240.4,205.5"/>
<path class="st0" d="M241.1,203.1c0.2-0.1,0.3-0.1,0.5-0.2c0.4-0.1,0.7-0.5,0.6-0.9c-0.1-0.8-0.2-1.6-0.4-2.4
	c-0.1-0.4-0.7-0.7-1.5-0.4c-0.3,0.1-0.6,0.2-0.9,0.3c-0.7,0.3-1.1,0.9-0.8,1.3c0.4,0.7,0.9,1.4,1.3,2.1
	C240.2,203.1,240.7,203.3,241.1,203.1"/>
<path class="st0" d="M247,204.5c0.4-0.1,0.7-0.7,0.5-1.5c-0.1-0.3-0.2-0.6-0.3-0.9c-0.3-0.7-0.9-1.1-1.3-0.8
	c-0.7,0.4-1.4,0.9-2.1,1.3c-0.4,0.2-0.5,0.7-0.3,1.1c0.1,0.2,0.1,0.3,0.2,0.5c0.1,0.4,0.5,0.7,0.9,0.6
	C245.4,204.8,246.2,204.6,247,204.5"/>
<path class="st0" d="M242.8,206.1c-0.2,0.1-0.3,0.1-0.5,0.2c-0.4,0.1-0.7,0.5-0.6,0.9c0.1,0.8,0.2,1.6,0.4,2.4
	c0.1,0.4,0.7,0.7,1.5,0.5c0.3-0.1,0.6-0.2,0.9-0.3c0.7-0.3,1.1-0.9,0.8-1.3c-0.4-0.7-0.9-1.4-1.3-2.1
	C243.7,206.1,243.2,206,242.8,206.1"/>
<path class="st0" d="M249.5,197c-4.2-4.2-11-4.2-15.2,0s-4.2,11,0,15.2s11,4.2,15.2,0S253.7,201.2,249.5,197 M237,209.6
	c-2.7-2.7-2.7-7.2,0-9.9s7.2-2.7,9.9,0s2.7,7.2,0,9.9C244.1,212.3,239.7,212.3,237,209.6"/>
<path class="st1" d="M154.2,367.4c0-2.2,0-4.5-0.2-6.9c0.9-0.1,1.7-0.9,1.7-1.9s-0.6-1.8-1.5-2c-1-3.2-4.1-10.7-10.9-15.6
	c-2.3-1.7-4.4-2.8-6.3-3.9c-4.7-2.6-8.5-4.7-13-12.9l2.2-0.6L126,323c0.5-0.1,1.9-0.5,3.8-1c4.2,6.8,11.5,11.4,20.1,12
	c0.3,0,0.6,0,0.9,0c6.9,0.2,13.4-2.3,18.4-7s7.9-11.1,8.1-17.9c0.4-13.9-10.1-25.5-24-26.4c-0.3,0-0.6,0-0.9,0
	c-14.1-0.4-26,10.8-26.4,24.9c-0.1,4.3,0.8,8.3,2.5,11.9c-1.8,0.5-2.9,0.8-3.2,0.9l-0.2-0.6l-13.2,3.9l-0.1-0.5l-2.2,0.6l0.2,0.8
	l-0.7,0.2l0.2,0.6l-6,1.6l-2.5-3.4v-0.9c0-0.3-0.2-0.5-0.5-0.5l-1.9-0.1c-0.3,0-0.5,0.2-0.5,0.5v0.9l-5.9,9.9
	c-0.1,0.2-0.2,0.4-0.1,0.6l0.1,2.7h-0.5l0.5,6.4h-0.4l0.1,1l0.7-0.1v0.3l2.7-0.2v-0.3l0.7-0.1l-0.1-1.1h-0.4l-0.6-6.4l-0.6,0.1
	L94,334l5.3-8.9l2.6,3.6c0.3,0.4,0.7,0.5,1.1,0.4l6.7-1.8l0.2,0.6l0.7-0.2l0.2,0.8l2.2-0.6l-0.1-0.5l0.4-0.1
	c1,2.4,4.5,10.1,9.5,13.6c14.8,10.3,15.4,17.9,15.3,19.7l-16.2,4.8l0.1,0.4h-0.1l-0.7,0.2c-0.3,0.1-0.4,0.4-0.3,0.6l0.1,0.2
	l-5.7,1.7c0-0.5-0.2-1-0.4-1.4l-4.3-8.2c-0.2-0.5-0.8-0.8-1.2-0.7c-0.4,0.1-0.8,0.6-0.8,1.1l-1.8,16.6c-0.1,0.5,0.3,0.9,0.9,0.8
	l1.5-0.2c0.5-0.1,1.3-0.4,1.7-0.7l3.1-2.5c0.4-0.3,0.8-1,0.9-1.6l0.1-0.9l6.5-2l0.1,0.2c0.1,0.3,0.4,0.4,0.6,0.3l0.7-0.2
	c0,0,0,0,0.1,0l0.1,0.3l1.8-0.5c1.2,1.5,3.4,4.1,6.1,7.2c-4.2,4.7-6.6,10.6-6.8,17c-0.4,14.5,10.6,26.6,25,27.5c0.3,0,0.6,0,1,0
	c7.2,0.2,14-2.4,19.2-7.3s8.2-11.6,8.4-18.7C178.4,380.8,168.1,369,154.2,367.4 M130.2,307.8c0.4-11.8,10.3-21.2,22.1-20.8
	c0.3,0,0.5,0,0.8,0c11.6,0.8,20.4,10.4,20.1,22c-0.2,5.7-2.6,11.1-6.7,15c-4.2,3.9-9.6,6-15.4,5.8c-7.1-0.2-13.3-3.8-17-9.2
	c5.4-2,12.5-5.4,18.1-10.5c0.8-0.2,1.4-0.8,1.4-1.7c0-1-0.8-1.8-1.7-1.8c-1,0-1.8,0.7-1.9,1.7c0,0,0,0,0,0.1
	c-5.3,4.8-12.2,7.9-17.3,9.8C131,315.2,130.1,311.6,130.2,307.8 M149.6,391.2c-4.7-4.1-9.6-9.2-13.7-13.7c4.3-3.9,9.7-6,15.5-6
	C151.2,380.5,150.2,387.7,149.6,391.2 M125.4,337.6c-3.8-2.6-6.8-8.9-7.9-11.3l2.4-0.7c5.3,9.9,10.1,12.5,15.1,15.3
	c1.9,1,3.8,2.1,5.9,3.6c5.3,3.8,8,9.8,9.1,12.8l-7.5,2.2C142.2,355.5,139.5,347.5,125.4,337.6 M151.4,361.3c0.1,2,0.1,4,0.1,5.9
	c-6.8-0.1-13.3,2.4-18.4,7c-2.1-2.5-3.9-4.6-5.2-6.1L151.4,361.3z M166.7,410.5c-4.4,4.1-10.1,6.3-16.2,6.1
	c-12.6-0.4-22.3-10.8-21.9-23.2c0.2-5.2,2-10.1,5.4-13.9c4.5,5,9.9,10.6,15,14.9c0.1,1.1,1,2,2.1,2c0.1,0,0.2,0,0.2,0l0,0l0,0
	c1.1-0.1,2-1,2.1-2.2c0-0.9-0.5-1.7-1.2-2.1c0.6-3.4,1.7-10.9,2-20.4c11.5,1.5,20,11.3,19.6,23C173.6,400.7,171.1,406.3,166.7,410.5
	"/>
<path class="st3" d="M154.2,367.4c0-2.2,0-4.5-0.2-6.9c0.9-0.1,1.7-0.9,1.7-1.9s-0.6-1.8-1.5-2c-1-3.2-4.1-10.7-10.9-15.6
	c-2.3-1.7-4.4-2.8-6.3-3.9c-4.7-2.6-8.5-4.7-13-12.9l2.2-0.6L126,323c0.5-0.1,1.9-0.5,3.8-1c4.2,6.8,11.5,11.4,20.1,12
	c0.3,0,0.6,0,0.9,0c6.9,0.2,13.4-2.3,18.4-7s7.9-11.1,8.1-17.9c0.4-13.9-10.1-25.5-24-26.4c-0.3,0-0.6,0-0.9,0
	c-14.1-0.4-26,10.8-26.4,24.9c-0.1,4.3,0.8,8.3,2.5,11.9c-1.8,0.5-2.9,0.8-3.2,0.9l-0.2-0.6l-13.2,3.9l-0.1-0.5l-2.2,0.6l0.2,0.8
	l-0.7,0.2l0.2,0.6l-6,1.6l-2.5-3.4v-0.9c0-0.3-0.2-0.5-0.5-0.5l-1.9-0.1c-0.3,0-0.5,0.2-0.5,0.5v0.9l-5.9,9.9
	c-0.1,0.2-0.2,0.4-0.1,0.6l0.1,2.7h-0.5l0.5,6.4h-0.4l0.1,1l0.7-0.1v0.3l2.7-0.2v-0.3l0.7-0.1l-0.1-1.1h-0.4l-0.6-6.4l-0.6,0.1
	L94,334l5.3-8.9l2.6,3.6c0.3,0.4,0.7,0.5,1.1,0.4l6.7-1.8l0.2,0.6l0.7-0.2l0.2,0.8l2.2-0.6l-0.1-0.5l0.4-0.1
	c1,2.4,4.5,10.1,9.5,13.6c14.8,10.3,15.4,17.9,15.3,19.7l-16.2,4.8l0.1,0.4h-0.1l-0.7,0.2c-0.3,0.1-0.4,0.4-0.3,0.6l0.1,0.2
	l-5.7,1.7c0-0.5-0.2-1-0.4-1.4l-4.3-8.2c-0.2-0.5-0.8-0.8-1.2-0.7c-0.4,0.1-0.8,0.6-0.8,1.1l-1.8,16.6c-0.1,0.5,0.3,0.9,0.9,0.8
	l1.5-0.2c0.5-0.1,1.3-0.4,1.7-0.7l3.1-2.5c0.4-0.3,0.8-1,0.9-1.6l0.1-0.9l6.5-2l0.1,0.2c0.1,0.3,0.4,0.4,0.6,0.3l0.7-0.2
	c0,0,0,0,0.1,0l0.1,0.3l1.8-0.5c1.2,1.5,3.4,4.1,6.1,7.2c-4.2,4.7-6.6,10.6-6.8,17c-0.4,14.5,10.6,26.6,25,27.5c0.3,0,0.6,0,1,0
	c7.2,0.2,14-2.4,19.2-7.3s8.2-11.6,8.4-18.7C178.4,380.8,168.1,369,154.2,367.4z M130.2,307.8c0.4-11.8,10.3-21.2,22.1-20.8
	c0.3,0,0.5,0,0.8,0c11.6,0.8,20.4,10.4,20.1,22c-0.2,5.7-2.6,11.1-6.7,15c-4.2,3.9-9.6,6-15.4,5.8c-7.1-0.2-13.3-3.8-17-9.2
	c5.4-2,12.5-5.4,18.1-10.5c0.8-0.2,1.4-0.8,1.4-1.7c0-1-0.8-1.8-1.7-1.8c-1,0-1.8,0.7-1.9,1.7c0,0,0,0,0,0.1
	c-5.3,4.8-12.2,7.9-17.3,9.8C131,315.2,130.1,311.6,130.2,307.8z M149.6,391.2c-4.7-4.1-9.6-9.2-13.7-13.7c4.3-3.9,9.7-6,15.5-6
	C151.2,380.5,150.2,387.7,149.6,391.2z M125.4,337.6c-3.8-2.6-6.8-8.9-7.9-11.3l2.4-0.7c5.3,9.9,10.1,12.5,15.1,15.3
	c1.9,1,3.8,2.1,5.9,3.6c5.3,3.8,8,9.8,9.1,12.8l-7.5,2.2C142.2,355.5,139.5,347.5,125.4,337.6z M151.4,361.3c0.1,2,0.1,4,0.1,5.9
	c-6.8-0.1-13.3,2.4-18.4,7c-2.1-2.5-3.9-4.6-5.2-6.1L151.4,361.3z M166.7,410.5c-4.4,4.1-10.1,6.3-16.2,6.1
	c-12.6-0.4-22.3-10.8-21.9-23.2c0.2-5.2,2-10.1,5.4-13.9c4.5,5,9.9,10.6,15,14.9c0.1,1.1,1,2,2.1,2c0.1,0,0.2,0,0.2,0l0,0l0,0
	c1.1-0.1,2-1,2.1-2.2c0-0.9-0.5-1.7-1.2-2.1c0.6-3.4,1.7-10.9,2-20.4c11.5,1.5,20,11.3,19.6,23C173.6,400.7,171.1,406.3,166.7,410.5
	z"/>
<path class="st0" d="M154.2,367.4c0-2.2,0-4.5-0.2-6.9c0.9-0.1,1.7-0.9,1.7-1.9s-0.6-1.8-1.5-2c-1-3.2-4.1-10.7-10.9-15.6
	c-2.3-1.7-4.4-2.8-6.3-3.9c-4.7-2.6-8.5-4.7-13-12.9l2.2-0.6L126,323c0.5-0.1,1.9-0.5,3.8-1c4.2,6.8,11.5,11.4,20.1,12
	c0.3,0,0.6,0,0.9,0c6.9,0.2,13.4-2.3,18.4-7s7.9-11.1,8.1-17.9c0.4-13.9-10.1-25.5-24-26.4c-0.3,0-0.6,0-0.9,0
	c-14.1-0.4-26,10.8-26.4,24.9c-0.1,4.3,0.8,8.3,2.5,11.9c-1.8,0.5-2.9,0.8-3.2,0.9l-0.2-0.6l-13.2,3.9l-0.1-0.5l-2.2,0.6l0.2,0.8
	l-0.7,0.2l0.2,0.6l-6,1.6l-2.5-3.4v-0.9c0-0.3-0.2-0.5-0.5-0.5l-1.9-0.1c-0.3,0-0.5,0.2-0.5,0.5v0.9l-5.9,9.9
	c-0.1,0.2-0.2,0.4-0.1,0.6l0.1,2.7h-0.5l0.5,6.4h-0.4l0.1,1l0.7-0.1v0.3l2.7-0.2v-0.3l0.7-0.1l-0.1-1.1h-0.4l-0.6-6.4l-0.6,0.1
	L94,334l5.3-8.9l2.6,3.6c0.3,0.4,0.7,0.5,1.1,0.4l6.7-1.8l0.2,0.6l0.7-0.2l0.2,0.8l2.2-0.6l-0.1-0.5l0.4-0.1
	c1,2.4,4.5,10.1,9.5,13.6c14.8,10.3,15.4,17.9,15.3,19.7l-16.2,4.8l0.1,0.4h-0.1l-0.7,0.2c-0.3,0.1-0.4,0.4-0.3,0.6l0.1,0.2
	l-5.7,1.7c0-0.5-0.2-1-0.4-1.4l-4.3-8.2c-0.2-0.5-0.8-0.8-1.2-0.7c-0.4,0.1-0.8,0.6-0.8,1.1l-1.8,16.6c-0.1,0.5,0.3,0.9,0.9,0.8
	l1.5-0.2c0.5-0.1,1.3-0.4,1.7-0.7l3.1-2.5c0.4-0.3,0.8-1,0.9-1.6l0.1-0.9l6.5-2l0.1,0.2c0.1,0.3,0.4,0.4,0.6,0.3l0.7-0.2
	c0,0,0,0,0.1,0l0.1,0.3l1.8-0.5c1.2,1.5,3.4,4.1,6.1,7.2c-4.2,4.7-6.6,10.6-6.8,17c-0.4,14.5,10.6,26.6,25,27.5c0.3,0,0.6,0,1,0
	c7.2,0.2,14-2.4,19.2-7.3s8.2-11.6,8.4-18.7C178.4,380.8,168.1,369,154.2,367.4 M130.2,307.8c0.4-11.8,10.3-21.2,22.1-20.8
	c0.3,0,0.5,0,0.8,0c11.6,0.8,20.4,10.4,20.1,22c-0.2,5.7-2.6,11.1-6.7,15c-4.2,3.9-9.6,6-15.4,5.8c-7.1-0.2-13.3-3.8-17-9.2
	c5.4-2,12.5-5.4,18.1-10.5c0.8-0.2,1.4-0.8,1.4-1.7c0-1-0.8-1.8-1.7-1.8c-1,0-1.8,0.7-1.9,1.7c0,0,0,0,0,0.1
	c-5.3,4.8-12.2,7.9-17.3,9.8C131,315.2,130.1,311.6,130.2,307.8 M149.6,391.2c-4.7-4.1-9.6-9.2-13.7-13.7c4.3-3.9,9.7-6,15.5-6
	C151.2,380.5,150.2,387.7,149.6,391.2 M125.4,337.6c-3.8-2.6-6.8-8.9-7.9-11.3l2.4-0.7c5.3,9.9,10.1,12.5,15.1,15.3
	c1.9,1,3.8,2.1,5.9,3.6c5.3,3.8,8,9.8,9.1,12.8l-7.5,2.2C142.2,355.5,139.5,347.5,125.4,337.6 M151.4,361.3c0.1,2,0.1,4,0.1,5.9
	c-6.8-0.1-13.3,2.4-18.4,7c-2.1-2.5-3.9-4.6-5.2-6.1L151.4,361.3z M166.7,410.5c-4.4,4.1-10.1,6.3-16.2,6.1
	c-12.6-0.4-22.3-10.8-21.9-23.2c0.2-5.2,2-10.1,5.4-13.9c4.5,5,9.9,10.6,15,14.9c0.1,1.1,1,2,2.1,2c0.1,0,0.2,0,0.2,0l0,0l0,0
	c1.1-0.1,2-1,2.1-2.2c0-0.9-0.5-1.7-1.2-2.1c0.6-3.4,1.7-10.9,2-20.4c11.5,1.5,20,11.3,19.6,23C173.6,400.7,171.1,406.3,166.7,410.5
	"/>
<path class="st1" d="M422.3,350.4h26.8c0.1-1.1,0.2-3.2,0.3-4.8c-5.2-52.8-60.8-71.7-136.1-67.4l0.4,42.3c71.7-2.1,106,4.6,108.9,30
	"/>
<path class="st0" d="M318.6,283.1l0.4,40.7c70.8-2.1,102.8,5.5,102.8,32.4c0,25.7-54.7,39.3-102.7,86v32.1c4.3-2.8,6.9-6.2,9.9-10.4
	c35.8-52.2,117.4-57.9,118.5-117.1C442.4,295.8,389.7,279,318.6,283.1"/>
<path class="st0" d="M163.8,85.7C163.8,85.7,163.7,85.7,163.8,85.7c1.5,2.3,2.7,4.7,3.5,7.1c5.1-0.7,10.1-1.5,15.2-2.2
	c0.1-2.5,0.5-5.1,1.4-7.8l0,0C177.2,83.8,170.5,84.7,163.8,85.7"/>
<path class="st0" d="M137.8,27.3c-4.3,5.3-6.4,11.5-5.5,17.8c1.7,11.7,16.4,30,31.3,39c0.2,0,0.5-0.1,0.7-0.1
	C157.2,78.3,126.6,51.7,137.8,27.3"/>
<path class="st0" d="M192.2,19.4c17.7,20.3-4.2,54.4-9.3,61.9c0.3,0,0.5-0.1,0.8-0.1l0,0c12-13,20.6-34.5,18.9-46.3
	C201.6,28.6,197.8,23.2,192.2,19.4"/>
<path class="st0" d="M153.9,16.1c-3.8,1.4-7.3,3.4-10.3,5.6c-4.9,7.5-10.4,26.7,22.6,62c1-0.1,1.9-0.3,2.9-0.4
	C139,37.6,148.5,21,153.9,16.1"/>
<path class="st0" d="M166.2,13.3c-0.9,0.1-1.8,0.2-2.8,0.3l0,0c-1,0.1-1.7,0.3-2.6,0.5c-3.1,3.7-5.9,17.4,11.6,68.7
	c0.4-0.1,0.8-0.1,1.1-0.2c0.4-0.1,0.7-0.1,1.1-0.2C176.8,28.3,170.2,15.9,166.2,13.3"/>
<path class="st0" d="M185,15.7c-3.5-1.3-7.4-2.2-11.5-2.5c6.6,3.2,20.3,16.4,4.5,68.7c1-0.1,1.9-0.3,2.9-0.4
	C202.6,38.3,191.8,21.5,185,15.7"/>
<path class="st0" d="M183,114.1c-3.4,0.5-6.7,1.1-9.9,1.6c-0.8-3.8-1.8-7.7-2.8-11.5c3.9-0.5,8-1.1,12.1-1.6
	C182.8,106.4,182.9,110.3,183,114.1"/>
<path class="st0" d="M172.5,102.3l-2.3-8.3c-0.7,0.1-1.4,0.2-2.1,0.3l2.3,8.3C171.1,102.5,171.8,102.4,172.5,102.3"/>
<path class="st0" d="M182.3,101l-0.1-8.8c-0.7,0.1-1.4,0.2-2.1,0.3l0.1,8.7C180.9,101.2,181.6,101.1,182.3,101"/>
<path class="st1" d="M177.4,219v150.5c0,50,85.5,84.2,85.5,84.2s85.5-34.2,85.5-84.2V219H177.4z"/>
<path class="st4" d="M187.4,227v138.6c0,45.9,76,77.3,76,77.3s76-31.4,76-77.3V227H187.4z M311.4,365.6c0,15.2-25.9,35.2-48.5,46.8
	c-22.9-11.8-48.5-31.5-48.5-46.8V255h97V365.6z"/>
<polygon class="st0" points="116,117.8 112.9,103.7 107.5,109.4 "/>
</svg>
