<?xml version="1.0" encoding="utf-8"?>
<!-- Generator: Adobe Illustrator 19.2.1, SVG Export Plug-In . SVG Version: 6.00 Build 0)  -->
<svg version="1.1" id="Layer_1" xmlns="http://www.w3.org/2000/svg" xmlns:xlink="http://www.w3.org/1999/xlink" x="0px" y="0px"
	 viewBox="0 0 300 136.9" style="enable-background:new 0 0 300 136.9;" xml:space="preserve">
<style type="text/css">
	.st0{fill:#F37021;}
	.st1{fill:#124466;}
</style>
<path class="st0" d="M1.4,0.7v65.1c0,21.6,35.9,36.4,35.9,36.4s35.9-14.8,35.9-36.4V0.7H1.4z M60.2,65.7c0,7.1-12.2,16.6-22.8,22
	c-10.8-5.5-22.9-14.8-22.9-22v-52h45.7V65.7z"/>
<g>
	<path class="st1" d="M259,73.3V60.5h-3.6v-1.6l3.7-0.8v-7.2l4.1-0.2v7.5h6.2v2.3h-6.2v12.4c0,2.5,0.8,3.4,2.6,3.4
		c1.2,0,2.1-0.9,3.1-2.4l1.3,1c-1.7,3-3.1,4-6,4C260.7,78.9,259,76.7,259,73.3z"/>
	<path class="st1" d="M112.7,30.6h-10l-1.5,3.9c-1.1,2.9-1.6,3.9,2.3,4.6v2.1h-9.9v-2.1c3-0.7,3.7-2.1,5-5.4l8.8-22.2h3.2l8.7,24.1
		c0.9,2.5,1.7,3.1,5,3.6v2.1h-13.3v-2.1c3.9-0.2,4.3-1.2,3.6-3.3L112.7,30.6z M111.8,28.1l-3.7-10.6h-0.4l-4.1,10.6H111.8z"/>
	<path class="st1" d="M126.9,35.9V23.1h-3.6v-1.6l3.7-0.8v-7.2l4.1-0.2v7.5h6.2v2.3h-6.2v12.4c0,2.5,0.8,3.4,2.6,3.4
		c1.2,0,2.1-0.9,3.1-2.4l1.3,1c-1.6,3-3.1,4-6,4C128.6,41.5,126.9,39.3,126.9,35.9z"/>
	<path class="st1" d="M139.4,39c2.6,0,3.3-0.5,3.3-1.6V14.6c0-1.3-0.8-2.1-3.4-2.2v-2.1l7.6-0.2v13.6c2.4-1.6,4.9-3.2,7.8-3.2
		c3,0,5.2,2.2,5.2,6.2v10.8c0,1.1,0.7,1.5,3.3,1.6v2.1h-10.3V39c2.2,0,2.9-0.5,2.9-1.6v-9.2c0-3.6-1.3-4.6-3.8-4.6
		c-2,0-3.7,0.8-5,1.6v12.2c0,1.1,0.6,1.5,2.8,1.6v2.1h-10.3V39z"/>
	<path class="st1" d="M165.6,36.7c0-1.8,0.8-3.6,2.7-4.6c3.4-1.9,8.7-2.6,9.4-3.2v-1.3c0-3.7-1-5.1-3.9-5.1c-1.4,0-2.2,0.3-2.9,0.9
		c0.4,0.8,0.4,1.5,0.4,2.1c0,1.3-0.8,2.5-2.4,2.5c-1.6,0-2.6-1.2-2.6-2.5c0-3.1,3.8-5.1,8.1-5.1c4.6,0,7.5,2.1,7.5,6.4v9.5
		c0,2.2,0.2,2.9,3.1,2.5l0.2,1.7c-1.6,0.6-2.5,0.8-3.7,0.8c-2.4,0-3.2-0.8-3.4-3.4h-0.4c-1.8,2-3.8,3.5-6.5,3.5
		C167.5,41.4,165.6,39.4,165.6,36.7z M177.7,35.9v-5.1c-6.2,1.4-7.4,2.4-7.4,4.9c0,1.5,0.8,2.9,3.1,2.9
		C175.2,38.6,176.7,37.3,177.7,35.9z"/>
	<path class="st1" d="M187.8,37.8V14.6c0-1.3-0.8-2.1-3.4-2.2v-2.2l7.6-0.2v13c1.6-1.5,3.6-2.7,6.3-2.7c5.4,0,8.6,4.2,8.6,9.9
		c0,6-3.8,11.2-9.7,11.2c-2.5,0-4.5-0.8-6.4-2.3l-1.4,2.5h-1.7L187.8,37.8z M202.3,30.5c0-4.3-2.2-7.3-5.4-7.3c-2,0-3.4,0.6-4.9,1.9
		v11.1c1.1,2.1,2.8,3.1,5,3.1C200.7,39.3,202.3,36.1,202.3,30.5z"/>
	<path class="st1" d="M209.4,36.7c0-1.8,0.8-3.6,2.7-4.6c3.4-1.9,8.7-2.6,9.4-3.2v-1.3c0-3.7-1-5.1-3.9-5.1c-1.4,0-2.2,0.3-2.9,0.9
		c0.4,0.8,0.4,1.5,0.4,2.1c0,1.3-0.8,2.5-2.4,2.5c-1.6,0-2.6-1.2-2.6-2.5c0-3.1,3.8-5.1,8.1-5.1c4.6,0,7.5,2.1,7.5,6.4v9.5
		c0,2.2,0.2,2.9,3.1,2.5l0.2,1.7c-1.6,0.6-2.5,0.8-3.7,0.8c-2.4,0-3.2-0.8-3.4-3.4h-0.4c-1.8,2-3.8,3.5-6.5,3.5
		C211.2,41.4,209.4,39.4,209.4,36.7z M221.4,35.9v-5.1c-6.2,1.4-7.4,2.4-7.4,4.9c0,1.5,0.8,2.9,3.1,2.9
		C218.9,38.6,220.5,37.3,221.4,35.9z"/>
	<path class="st1" d="M231.1,34.7h1.9c2.1,3.3,4,4.7,6.6,4.7c2.1,0,3.2-1.2,3.2-2.6c0-1.9-1.3-3-5.1-4c-4.5-1.2-6.3-3.1-6.3-5.9
		c0-3.9,2.9-6.5,7.3-6.5c1.4,0,3.1,0.6,4,1.3l0.8-1.3h1.6v6.1h-1.9c-1.6-2.6-2.9-4-5-4c-2.2,0-3.3,1.1-3.3,2.7
		c0,1.8,1.5,2.7,4.9,3.6c4.5,1.2,6.2,2.9,6.2,6c0,3.7-2.2,6.9-7,6.9c-1.9,0-3.8-0.7-5-1.6l-1.2,1.6h-1.6V34.7z"/>
	<path class="st1" d="M248.4,31.1c0-6.2,4.5-10.8,10.1-10.8c4.6,0,7.5,2.5,7.5,5.1c0,1.8-1.1,3.3-2.7,3.3c-1.5,0-2.6-1-2.6-2.3
		c0-1.2,0.8-2.1,1.4-2.4c-0.5-0.7-1.9-1.5-3.6-1.5c-3.3,0-5.7,2-5.7,7.6c0,5.3,2.2,8.7,6.6,8.7c2.5,0,4.4-1.4,5.9-3.2l1.2,1.2
		c-1.9,2.7-4.1,4.7-8.6,4.7C252.2,41.5,248.4,37.1,248.4,31.1z"/>
	<path class="st1" d="M268.9,36.7c0-1.8,0.9-3.6,2.7-4.6c3.4-1.9,8.7-2.6,9.4-3.2v-1.3c0-3.7-1-5.1-3.9-5.1c-1.4,0-2.2,0.3-2.9,0.9
		c0.4,0.8,0.4,1.5,0.4,2.1c0,1.3-0.8,2.5-2.4,2.5c-1.6,0-2.6-1.2-2.6-2.5c0-3.1,3.8-5.1,8.1-5.1c4.6,0,7.5,2.1,7.5,6.4v9.5
		c0,2.2,0.2,2.9,3.1,2.5l0.2,1.7c-1.6,0.6-2.5,0.8-3.7,0.8c-2.4,0-3.2-0.8-3.4-3.4H281c-1.8,2-3.8,3.5-6.5,3.5
		C270.8,41.4,268.9,39.4,268.9,36.7z M281,35.9v-5.1c-6.2,1.4-7.4,2.4-7.4,4.9c0,1.5,0.8,2.9,3.1,2.9C278.5,38.6,280,37.3,281,35.9z
		"/>
	<path class="st1" d="M98.7,69.7V53.3c0-1.4-1-1.8-4.7-1.9v-2.2h13.7v2.2c-4,0.1-4.4,0.4-4.4,1.9v15.2c0,5.7,2.9,7.8,8.3,7.8
		c2.4,0,4.1-0.8,5.4-2.1c1.5-1.5,1.9-3.5,1.9-6.8V56.2c0-4.1-0.8-4.3-5-5v-2h11.9v2c-4,0.7-4.2,0.9-4.2,5v13.5
		c0,4.9-4.1,9.6-11.4,9.6C102.7,79.2,98.7,75.3,98.7,69.7z"/>
	<path class="st1" d="M126.6,76.4c2.6,0,3.3-0.5,3.3-1.6V62.5c0-1.3-0.7-2.1-3.3-2.2v-2.1L134,58V61c2.4-1.6,4.9-3.2,7.9-3.2
		c3.1,0,5.3,2.2,5.3,6.2v10.8c0,1.1,0.6,1.5,3.3,1.6v2.1h-10.3v-2.1c2.3,0,2.9-0.5,2.9-1.6v-9.2c0-3.6-1.3-4.6-3.8-4.6
		c-2,0-3.7,0.8-5,1.6v12.2c0,1.1,0.6,1.5,2.8,1.6v2.1h-10.3V76.4z"/>
	<path class="st1" d="M152.6,76.4c2.6,0,3.2-0.5,3.2-1.6V62.5c0-1.3-0.6-2.1-3.2-2.2v-2.1L160,58v16.9c0,1.1,0.6,1.5,3.2,1.6v2.1
		h-10.6V76.4z M155.1,50.5c0-1.7,1.1-2.9,2.8-2.9c1.7,0,2.8,1.1,2.8,2.8c0,1.7-1.1,2.9-2.8,2.9C156.2,53.2,155.1,52.2,155.1,50.5z"
		/>
	<path class="st1" d="M167.3,62.9c-0.8-1.9-1.4-2.5-3.5-2.8v-2h10.2v2c-2.1,0.2-2.8,0.5-2.8,1.2c0,0.3,0.1,0.5,0.2,0.9l4.2,11.2h0.5
		l3.7-9.6c0.3-0.7,0.4-1.3,0.4-1.8c0-1-0.7-1.5-2.4-1.9v-2h8.1v2c-1.4,0.3-2.5,1-3.4,3.1l-6.5,15.6h-2.7L167.3,62.9z"/>
	<path class="st1" d="M187.1,68.5c0-6.1,4-10.8,9.8-10.8c6.6,0,8.8,5.2,8.4,10.3l-13.7,0v0.1c0,4.5,2.2,8.1,6.6,8.1
		c2.5,0,4.5-1.4,6.2-3.6l1.2,1.2c-1.7,2.8-4.3,5.1-8.8,5.1C190.6,78.9,187.1,74.4,187.1,68.5z M191.7,66.3l9.2-0.2
		c0-3.7-1.2-6.5-4.3-6.5C194.1,59.6,192,61.1,191.7,66.3z"/>
	<path class="st1" d="M207.7,76.4c2.6,0,3.3-0.5,3.3-1.6V62.5c0-1.3-0.7-2.1-3.3-2.2v-2.1l7.4-0.2v3.5c1.6-2,3.4-3.6,5.7-3.6
		c2.3,0,3.4,1.6,3.4,3.5c0,1.4-1.1,2.7-2.5,2.7c-1.3,0-2.6-0.7-2.6-2.4c0-0.2,0-0.5,0.1-0.8c-2-0.1-3.2,1.2-4.1,2.4v11.6
		c0,1.1,0.8,1.5,3.8,1.6v2.1h-11.2V76.4z"/>
	<path class="st1" d="M225.7,72.1h1.9c2,3.3,4,4.7,6.6,4.7c2.1,0,3.2-1.2,3.2-2.6c0-1.9-1.3-3-5.1-4c-4.5-1.2-6.3-3.1-6.3-5.9
		c0-3.9,2.9-6.5,7.3-6.5c1.4,0,3.1,0.6,4,1.3l0.8-1.3h1.6v6.1h-1.9c-1.6-2.6-2.9-4-5-4c-2.2,0-3.3,1.1-3.3,2.7
		c0,1.8,1.5,2.7,4.9,3.6c4.5,1.2,6.2,2.9,6.2,6c0,3.7-2.2,6.9-7,6.9c-1.9,0-3.8-0.7-4.9-1.6l-1.2,1.6h-1.6V72.1z"/>
	<path class="st1" d="M243.9,76.4c2.6,0,3.2-0.5,3.2-1.6V62.5c0-1.3-0.6-2.1-3.2-2.2v-2.1l7.4-0.2v16.9c0,1.1,0.6,1.5,3.2,1.6v2.1
		h-10.6V76.4z M246.4,50.5c0-1.7,1.1-2.9,2.8-2.9c1.6,0,2.8,1.1,2.8,2.8c0,1.7-1.1,2.9-2.8,2.9C247.5,53.2,246.4,52.2,246.4,50.5z"
		/>
	<path class="st1" d="M275.1,62.9c-0.8-1.9-1.4-2.5-3.4-2.8v-2h10.2v2c-2.8,0.3-3.1,0.8-2.5,2.3l4.6,10.9l3.7-9.1
		c1-2.5,0.5-3.7-1.8-4.1v-2h8.3v2c-1.8,0.3-3,1.3-3.8,3.3l-7,17c-2.5,5.8-4.5,7.2-7.3,7.2c-2.2,0-3.8-1.5-3.8-3.4
		c0-1.3,0.9-2.7,2.6-2.7c1.4,0,2.5,1.2,2.5,2.6c0,0.4-0.1,0.8-0.1,1c1.4-0.1,2.7-2.3,4.5-6.5l0.1-0.3L275.1,62.9z"/>
</g>
<g>
	<path class="st0" d="M9.8,114.8c1.7,0,3,0.5,3.9,1.5c1,1,1.4,2.3,1.4,4.1c0,1.6-0.3,3.2-0.9,4.6c-0.6,1.5-1.5,2.6-2.5,3.4
		c-1.1,0.8-2.3,1.2-3.6,1.2c-1.7,0-3-0.5-3.9-1.5c-0.9-1-1.4-2.3-1.4-4c0-1.7,0.3-3.2,1-4.7c0.6-1.5,1.5-2.6,2.6-3.4
		C7.3,115.2,8.5,114.8,9.8,114.8z M12.9,120c0-1-0.3-1.8-0.8-2.4c-0.5-0.6-1.3-0.9-2.2-0.9c-1,0-1.8,0.3-2.6,1
		c-0.8,0.6-1.3,1.5-1.8,2.7c-0.4,1.1-0.6,2.4-0.6,3.8c0,1.1,0.3,2,0.8,2.6c0.6,0.6,1.4,0.9,2.4,0.9c0.9,0,1.7-0.3,2.4-1
		c0.7-0.6,1.3-1.5,1.7-2.7C12.7,122.8,12.9,121.5,12.9,120z"/>
	<path class="st0" d="M23.6,129.6c-0.8,0-1.6-0.2-2.2-0.7c-0.6-0.4-1.1-1-1.5-1.8h-0.1l0,0.5c0,0.2-0.1,0.5-0.1,0.9
		c-0.1,0.4-0.6,2.8-1.5,7.2h-2.2l4.4-20.8h1.8l-0.3,2.7h0.1c1.6-2,3.2-3,4.9-3c1.2,0,2.1,0.4,2.8,1.3c0.7,0.9,1,2,1,3.6
		c0,1.8-0.3,3.5-0.9,5.1c-0.6,1.5-1.4,2.7-2.5,3.6C26.1,129.1,24.9,129.6,23.6,129.6z M26,116.5c-0.8,0-1.7,0.4-2.6,1.2
		c-0.9,0.8-1.6,1.9-2.1,3.1c-0.5,1.3-0.8,2.5-0.8,3.9c0,1,0.2,1.7,0.7,2.2c0.5,0.5,1.2,0.8,2.1,0.8c0.9,0,1.7-0.4,2.4-1.1
		c0.7-0.7,1.3-1.7,1.8-3c0.5-1.3,0.7-2.7,0.7-4.2C28.4,117.5,27.6,116.5,26,116.5z"/>
	<path class="st0" d="M38.4,129.6c-1.6,0-2.9-0.5-3.8-1.4c-0.9-1-1.4-2.3-1.4-4c0-1.6,0.3-3.2,1-4.7c0.7-1.5,1.5-2.7,2.6-3.5
		c1.1-0.8,2.3-1.3,3.5-1.3c1.3,0,2.3,0.3,3,0.9c0.7,0.6,1,1.4,1,2.4c0,1.6-0.7,2.8-2.2,3.7c-1.4,0.9-3.5,1.3-6.2,1.3h-0.4l0,1
		c0,1.1,0.3,2,0.8,2.7c0.5,0.6,1.4,1,2.5,1c0.5,0,1.1-0.1,1.7-0.2c0.6-0.2,1.3-0.4,2.2-0.9v1.9c-0.8,0.4-1.5,0.7-2.2,0.8
		C39.8,129.5,39.1,129.6,38.4,129.6z M40.2,116.6c-0.9,0-1.7,0.4-2.5,1.2c-0.8,0.8-1.4,2-1.8,3.4H36c2,0,3.5-0.3,4.6-0.8
		c1.1-0.5,1.6-1.3,1.6-2.3c0-0.5-0.2-0.8-0.5-1.1C41.4,116.7,40.9,116.6,40.2,116.6z"/>
	<path class="st0" d="M54.7,129.3l1.9-9.1c0.2-0.9,0.3-1.5,0.3-1.9c0-0.5-0.2-1-0.5-1.3c-0.3-0.3-0.8-0.5-1.5-0.5
		c-0.8,0-1.5,0.3-2.3,0.8c-0.7,0.5-1.4,1.3-2,2.2c-0.6,1-1,2.1-1.3,3.5l-1.3,6.2h-2.2L49,115h1.8l-0.3,2.7h0.1
		c0.8-1.1,1.6-1.8,2.4-2.3c0.8-0.4,1.6-0.7,2.4-0.7c1.1,0,2,0.3,2.6,0.9c0.6,0.6,1,1.5,1,2.5c0,0.7-0.1,1.5-0.3,2.4l-1.9,8.8H54.7z"
		/>
	<path class="st0" d="M61.2,128.3c0-0.7,0.2-1.2,0.5-1.6c0.4-0.4,0.8-0.6,1.5-0.6c0.4,0,0.7,0.1,0.9,0.3c0.2,0.2,0.3,0.6,0.3,1
		c0,0.6-0.2,1.1-0.5,1.6c-0.3,0.4-0.8,0.6-1.4,0.6c-0.4,0-0.7-0.1-1-0.3C61.3,129.1,61.2,128.8,61.2,128.3z"/>
	<path class="st0" d="M82.7,114.8c1.7,0,3,0.5,3.9,1.5c1,1,1.4,2.3,1.4,4.1c0,1.6-0.3,3.2-0.9,4.6c-0.6,1.5-1.5,2.6-2.5,3.4
		c-1.1,0.8-2.3,1.2-3.6,1.2c-1.7,0-3-0.5-3.9-1.5c-0.9-1-1.4-2.3-1.4-4c0-1.7,0.3-3.2,1-4.7c0.6-1.5,1.5-2.6,2.6-3.4
		C80.2,115.2,81.4,114.8,82.7,114.8z M85.8,120c0-1-0.3-1.8-0.8-2.4c-0.5-0.6-1.3-0.9-2.2-0.9c-1,0-1.8,0.3-2.6,1
		c-0.8,0.6-1.3,1.5-1.8,2.7c-0.4,1.1-0.6,2.4-0.6,3.8c0,1.1,0.3,2,0.8,2.6c0.6,0.6,1.4,0.9,2.4,0.9c0.9,0,1.7-0.3,2.4-1
		c0.7-0.6,1.3-1.5,1.7-2.7C85.6,122.8,85.8,121.5,85.8,120z"/>
	<path class="st0" d="M98.9,129.3l1.9-9.1c0.2-0.9,0.3-1.5,0.3-1.9c0-0.5-0.2-1-0.5-1.3c-0.3-0.3-0.8-0.5-1.5-0.5
		c-0.8,0-1.5,0.3-2.3,0.8c-0.7,0.5-1.4,1.3-2,2.2c-0.6,1-1,2.1-1.3,3.5l-1.3,6.2h-2.2l3.1-14.3H95l-0.3,2.7h0.1
		c0.8-1.1,1.6-1.8,2.4-2.3c0.8-0.4,1.6-0.7,2.4-0.7c1.1,0,2,0.3,2.6,0.9c0.6,0.6,1,1.5,1,2.5c0,0.7-0.1,1.5-0.3,2.4l-1.9,8.8H98.9z"
		/>
	<path class="st0" d="M107.8,129.3h-2.2l4.3-20.4h2.2L107.8,129.3z"/>
	<path class="st0" d="M114.6,129.3h-2.2l3.1-14.3h2.2L114.6,129.3z M116.1,111.3c0-0.5,0.1-0.9,0.4-1.2c0.3-0.3,0.6-0.5,1.1-0.5
		c0.8,0,1.1,0.4,1.1,1.2c0,0.5-0.1,0.9-0.4,1.2c-0.3,0.3-0.6,0.5-1,0.5c-0.3,0-0.6-0.1-0.9-0.3C116.2,112,116.1,111.7,116.1,111.3z"
		/>
	<path class="st0" d="M127.9,129.3l1.9-9.1c0.2-0.9,0.3-1.5,0.3-1.9c0-0.5-0.2-1-0.5-1.3c-0.3-0.3-0.8-0.5-1.5-0.5
		c-0.8,0-1.5,0.3-2.3,0.8c-0.7,0.5-1.4,1.3-2,2.2c-0.6,1-1,2.1-1.3,3.5l-1.3,6.2h-2.2l3.1-14.3h1.8l-0.3,2.7h0.1
		c0.8-1.1,1.6-1.8,2.4-2.3c0.8-0.4,1.6-0.7,2.4-0.7c1.1,0,2,0.3,2.6,0.9c0.6,0.6,1,1.5,1,2.5c0,0.7-0.1,1.5-0.3,2.4l-1.9,8.8H127.9z
		"/>
	<path class="st0" d="M140.3,129.6c-1.6,0-2.9-0.5-3.8-1.4c-0.9-1-1.4-2.3-1.4-4c0-1.6,0.3-3.2,1-4.7c0.6-1.5,1.5-2.7,2.6-3.5
		c1.1-0.8,2.3-1.3,3.5-1.3c1.3,0,2.3,0.3,3,0.9c0.7,0.6,1,1.4,1,2.4c0,1.6-0.7,2.8-2.2,3.7c-1.4,0.9-3.5,1.3-6.2,1.3h-0.4l-0.1,1
		c0,1.1,0.3,2,0.8,2.7c0.5,0.6,1.4,1,2.5,1c0.5,0,1.1-0.1,1.7-0.2c0.6-0.2,1.3-0.4,2.2-0.9v1.9c-0.8,0.4-1.5,0.7-2.2,0.8
		C141.8,129.5,141.1,129.6,140.3,129.6z M142.1,116.6c-0.9,0-1.7,0.4-2.5,1.2c-0.8,0.8-1.4,2-1.8,3.4h0.2c2,0,3.5-0.3,4.6-0.8
		c1.1-0.5,1.6-1.3,1.6-2.3c0-0.5-0.2-0.8-0.5-1.1C143.3,116.7,142.8,116.6,142.1,116.6z"/>
	<path class="st0" d="M147.6,128.3c0-0.7,0.2-1.2,0.5-1.6c0.4-0.4,0.8-0.6,1.5-0.6c0.4,0,0.7,0.1,0.9,0.3c0.2,0.2,0.3,0.6,0.3,1
		c0,0.6-0.2,1.1-0.5,1.6c-0.3,0.4-0.8,0.6-1.4,0.6c-0.4,0-0.7-0.1-1-0.3C147.8,129.1,147.6,128.8,147.6,128.3z"/>
	<path class="st0" d="M167.3,129.6c-1.6,0-2.9-0.5-3.8-1.4c-0.9-1-1.4-2.3-1.4-4c0-1.6,0.3-3.2,1-4.7c0.7-1.5,1.5-2.7,2.6-3.5
		c1.1-0.8,2.3-1.3,3.5-1.3c1.3,0,2.3,0.3,3,0.9c0.7,0.6,1,1.4,1,2.4c0,1.6-0.7,2.8-2.2,3.7c-1.4,0.9-3.5,1.3-6.2,1.3h-0.4l-0.1,1
		c0,1.1,0.3,2,0.8,2.7c0.5,0.6,1.4,1,2.5,1c0.5,0,1.1-0.1,1.7-0.2c0.6-0.2,1.3-0.4,2.2-0.9v1.9c-0.8,0.4-1.5,0.7-2.2,0.8
		C168.7,129.5,168,129.6,167.3,129.6z M169.1,116.6c-0.9,0-1.7,0.4-2.5,1.2c-0.8,0.8-1.4,2-1.8,3.4h0.2c2,0,3.5-0.3,4.6-0.8
		c1.1-0.5,1.6-1.3,1.6-2.3c0-0.5-0.2-0.8-0.5-1.1C170.3,116.7,169.8,116.6,169.1,116.6z"/>
	<path class="st0" d="M176.9,129.3l-1.6-14.3h2.2l0.8,8c0.2,2.2,0.3,3.8,0.3,4.7h0.1c1.1-2.4,1.9-4,2.3-4.9l4.2-7.9h2.3l-7.7,14.3
		H176.9z"/>
	<path class="st0" d="M192.8,129.6c-1.6,0-2.9-0.5-3.8-1.4c-0.9-1-1.4-2.3-1.4-4c0-1.6,0.3-3.2,1-4.7c0.7-1.5,1.5-2.7,2.6-3.5
		c1.1-0.8,2.3-1.3,3.5-1.3c1.3,0,2.3,0.3,3,0.9c0.7,0.6,1,1.4,1,2.4c0,1.6-0.7,2.8-2.2,3.7c-1.4,0.9-3.5,1.3-6.2,1.3H190l0,1
		c0,1.1,0.3,2,0.8,2.7c0.5,0.6,1.4,1,2.5,1c0.5,0,1.1-0.1,1.7-0.2c0.6-0.2,1.3-0.4,2.2-0.9v1.9c-0.8,0.4-1.5,0.7-2.2,0.8
		C194.3,129.5,193.6,129.6,192.8,129.6z M194.7,116.6c-0.9,0-1.7,0.4-2.5,1.2c-0.8,0.8-1.4,2-1.8,3.4h0.2c2,0,3.5-0.3,4.6-0.8
		c1.1-0.5,1.6-1.3,1.6-2.3c0-0.5-0.2-0.8-0.5-1.1C195.8,116.7,195.3,116.6,194.7,116.6z"/>
	<path class="st0" d="M209.4,114.7c0.6,0,1.1,0.1,1.6,0.2l-0.5,2c-0.5-0.1-0.9-0.2-1.4-0.2c-0.8,0-1.5,0.3-2.2,0.8
		c-0.7,0.5-1.3,1.2-1.8,2.2c-0.5,0.9-0.9,2-1.1,3.1l-1.4,6.6h-2.2l3.1-14.3h1.8l-0.3,2.7h0.1c0.6-0.8,1.1-1.4,1.6-1.8
		c0.4-0.4,0.8-0.6,1.3-0.8C208.4,114.8,208.9,114.7,209.4,114.7z"/>
	<path class="st0" d="M211.5,115h2.2l1,7.1c0.1,0.6,0.2,1.5,0.3,2.7c0.1,1.2,0.1,2.1,0.1,2.8h0.1c0.3-0.8,0.7-1.6,1.1-2.6
		c0.5-1,0.8-1.7,1-2l4.2-8h2.3l-9.1,16.8c-0.8,1.5-1.6,2.5-2.4,3.1c-0.8,0.6-1.7,0.9-2.9,0.9c-0.6,0-1.2-0.1-1.8-0.3v-1.8
		c0.5,0.2,1.1,0.2,1.7,0.2c0.7,0,1.3-0.2,1.8-0.7c0.5-0.4,1-1.1,1.5-2l1-1.8L211.5,115z"/>
	<path class="st0" d="M233.5,129.3l-0.4-7.9c0-0.8-0.1-1.6-0.1-2.3v-2h-0.1l-0.7,1.5l-1.1,2.5l-3.8,8.1h-2.6l-0.6-14.3h2.1l0.2,7.8
		v1.2c0,1.3,0,2.5-0.1,3.5h0.1c0.4-1.1,1-2.5,1.8-4.2l3.9-8.2h2.4l0.5,7.8c0.1,1.5,0.1,2.6,0.1,3.4v0.7l0,0.5h0.1
		c0.2-0.8,0.6-1.7,1.1-2.9c0.5-1.2,1.9-4.3,4.2-9.6h2.3l-6.6,14.3H233.5z"/>
	<path class="st0" d="M251.3,129.3l1.9-9.1c0.2-0.8,0.2-1.4,0.2-1.8c0-1.3-0.6-1.9-1.9-1.9c-0.8,0-1.5,0.3-2.3,0.8
		c-0.7,0.5-1.4,1.3-2,2.2c-0.6,1-1,2.2-1.3,3.5l-1.3,6.2h-2.2l4.3-20.4h2.2c-0.2,0.7-0.3,1.4-0.5,2.1c-0.1,0.7-0.3,1.4-0.4,2
		c-0.2,0.7-0.3,1.4-0.5,2.2c-0.2,0.8-0.4,1.6-0.6,2.5h0.1c0.8-1.1,1.6-1.8,2.4-2.3c0.8-0.5,1.6-0.7,2.5-0.7c1.1,0,2,0.3,2.6,0.9
		c0.6,0.6,0.9,1.5,0.9,2.7c0,0.5-0.1,1.3-0.3,2.2c-0.3,1.7-1,4.6-1.9,8.8H251.3z"/>
	<path class="st0" d="M263.7,129.6c-1.6,0-2.9-0.5-3.8-1.4c-0.9-1-1.4-2.3-1.4-4c0-1.6,0.3-3.2,1-4.7c0.7-1.5,1.5-2.7,2.6-3.5
		c1.1-0.8,2.3-1.3,3.5-1.3c1.3,0,2.3,0.3,3,0.9c0.7,0.6,1,1.4,1,2.4c0,1.6-0.7,2.8-2.2,3.7c-1.4,0.9-3.5,1.3-6.2,1.3h-0.4l-0.1,1
		c0,1.1,0.3,2,0.8,2.7c0.5,0.6,1.4,1,2.5,1c0.6,0,1.1-0.1,1.7-0.2c0.6-0.2,1.3-0.4,2.2-0.9v1.9c-0.8,0.4-1.5,0.7-2.2,0.8
		C265.1,129.5,264.4,129.6,263.7,129.6z M265.5,116.6c-0.9,0-1.7,0.4-2.5,1.2c-0.8,0.8-1.4,2-1.8,3.4h0.2c2,0,3.5-0.3,4.6-0.8
		c1.1-0.5,1.6-1.3,1.6-2.3c0-0.5-0.2-0.8-0.5-1.1C266.7,116.7,266.2,116.6,265.5,116.6z"/>
	<path class="st0" d="M280.3,114.7c0.6,0,1.1,0.1,1.6,0.2l-0.5,2c-0.5-0.1-0.9-0.2-1.4-0.2c-0.8,0-1.5,0.3-2.2,0.8
		c-0.7,0.5-1.3,1.2-1.8,2.2c-0.5,0.9-0.9,2-1.1,3.1l-1.4,6.6h-2.2l3.1-14.3h1.8l-0.3,2.7h0.1c0.6-0.8,1.1-1.4,1.6-1.8
		c0.4-0.4,0.8-0.6,1.3-0.8C279.2,114.8,279.7,114.7,280.3,114.7z"/>
	<path class="st0" d="M287.5,129.6c-1.6,0-2.9-0.5-3.8-1.4c-0.9-1-1.4-2.3-1.4-4c0-1.6,0.3-3.2,1-4.7c0.7-1.5,1.5-2.7,2.6-3.5
		c1.1-0.8,2.3-1.3,3.5-1.3c1.3,0,2.3,0.3,3,0.9c0.7,0.6,1,1.4,1,2.4c0,1.6-0.7,2.8-2.2,3.7c-1.4,0.9-3.5,1.3-6.2,1.3h-0.4l-0.1,1
		c0,1.1,0.3,2,0.8,2.7c0.5,0.6,1.4,1,2.5,1c0.5,0,1.1-0.1,1.7-0.2c0.6-0.2,1.3-0.4,2.2-0.9v1.9c-0.8,0.4-1.5,0.7-2.2,0.8
		C289,129.5,288.3,129.6,287.5,129.6z M289.3,116.6c-0.9,0-1.7,0.4-2.5,1.2c-0.8,0.8-1.4,2-1.8,3.4h0.2c2,0,3.5-0.3,4.6-0.8
		c1.1-0.5,1.6-1.3,1.6-2.3c0-0.5-0.2-0.8-0.5-1.1C290.5,116.7,290,116.6,289.3,116.6z"/>
	<path class="st0" d="M294.8,128.3c0-0.7,0.2-1.2,0.5-1.6c0.4-0.4,0.8-0.6,1.5-0.6c0.4,0,0.7,0.1,0.9,0.3c0.2,0.2,0.3,0.6,0.3,1
		c0,0.6-0.2,1.1-0.5,1.6c-0.3,0.4-0.8,0.6-1.4,0.6c-0.4,0-0.7-0.1-1-0.3C295,129.1,294.8,128.8,294.8,128.3z"/>
</g>
</svg>
